<svg xmlns="http://www.w3.org/2000/svg" xmlns:xlink="http://www.w3.org/1999/xlink" version="1.1" width="256" height="256" viewBox="0 0 256 256" xml:space="preserve">

<defs>
</defs>
<g style="stroke: none; stroke-width: 0; stroke-dasharray: none; stroke-linecap: butt; stroke-linejoin: miter; stroke-miterlimit: 10; fill: none; fill-rule: nonzero; opacity: 1;" transform="translate(1.4065934065934016 1.4065934065934016) scale(2.81 2.81)" >
	<path d="M 18.427 30.629 c -0.069 0 -0.138 -0.01 -0.205 -0.032 C 10.84 28.236 5.683 20.65 5.683 12.15 V 5.651 c 0 -0.371 0.301 -0.672 0.672 -0.672 c 2.155 0 3.909 -1.754 3.909 -3.909 c 0 -0.371 0.301 -0.672 0.672 -0.672 h 14.983 c 0.371 0 0.672 0.301 0.672 0.672 c 0 2.155 1.754 3.909 3.91 3.909 c 0.371 0 0.672 0.301 0.672 0.672 v 6.499 c 0 8.5 -5.157 16.086 -12.54 18.448 C 18.566 30.619 18.497 30.629 18.427 30.629 z" style="stroke: none; stroke-width: 1; stroke-dasharray: none; stroke-linecap: butt; stroke-linejoin: miter; stroke-miterlimit: 10; fill: rgb(201,207,212); fill-rule: nonzero; opacity: 1;" transform=" matrix(2.81 0 0 2.81 1.4065934065934016 1.4065934065934016) " stroke-linecap="round" />
	<path d="M 18.427 30.985 c -0.108 0 -0.214 -0.016 -0.314 -0.049 C 10.586 28.528 5.327 20.803 5.327 12.15 V 5.651 c 0 -0.567 0.461 -1.028 1.028 -1.028 c 1.959 0 3.554 -1.594 3.554 -3.553 c 0 -0.567 0.461 -1.028 1.028 -1.028 h 14.983 c 0.566 0 1.028 0.461 1.028 1.028 c 0 1.959 1.594 3.553 3.554 3.553 c 0.566 0 1.028 0.461 1.028 1.028 v 6.499 c 0 8.653 -5.258 16.378 -12.787 18.786 C 18.641 30.969 18.535 30.985 18.427 30.985 z M 10.936 0.754 c -0.174 0 -0.316 0.142 -0.316 0.316 c 0 2.352 -1.913 4.265 -4.265 4.265 c -0.174 0 -0.316 0.142 -0.316 0.316 v 6.499 c 0 8.347 5.055 15.794 12.292 18.109 c 0.062 0.019 0.132 0.019 0.191 0 c 7.238 -2.315 12.293 -9.762 12.293 -18.109 V 5.651 c 0 -0.174 -0.142 -0.316 -0.316 -0.316 c -2.352 0 -4.266 -1.913 -4.266 -4.265 c 0 -0.174 -0.142 -0.316 -0.316 -0.316 H 10.936 z" style="stroke: none; stroke-width: 1; stroke-dasharray: none; stroke-linecap: butt; stroke-linejoin: miter; stroke-miterlimit: 10; fill: rgb(0,0,0); fill-rule: nonzero; opacity: 1;" transform=" matrix(2.81 0 0 2.81 1.4065934065934016 1.4065934065934016) " stroke-linecap="round" />
	<path d="M 58.376 46.675 H 39.854 c -0.552 0 -1 -0.447 -1 -1 c 0 -0.552 0.448 -1 1 -1 h 18.521 c 0.553 0 1 0.448 1 1 C 59.376 46.228 58.929 46.675 58.376 46.675 z" style="stroke: none; stroke-width: 1; stroke-dasharray: none; stroke-linecap: butt; stroke-linejoin: miter; stroke-miterlimit: 10; fill: rgb(0,0,0); fill-rule: nonzero; opacity: 1;" transform=" matrix(1 0 0 1 0 0) " stroke-linecap="round" />
	<path d="M 58.376 63.398 h -3.687 c -0.306 0 -0.595 -0.14 -0.785 -0.38 l -4.656 -5.896 h -9.394 c -0.552 0 -1 -0.447 -1 -1 s 0.448 -1 1 -1 h 9.878 c 0.306 0 0.595 0.14 0.785 0.38 l 4.656 5.896 h 3.202 c 0.553 0 1 0.447 1 1 S 58.929 63.398 58.376 63.398 z" style="stroke: none; stroke-width: 1; stroke-dasharray: none; stroke-linecap: butt; stroke-linejoin: miter; stroke-miterlimit: 10; fill: rgb(0,0,0); fill-rule: nonzero; opacity: 1;" transform=" matrix(1 0 0 1 0 0) " stroke-linecap="round" />
	<path d="M 49.732 36.227 h -9.878 c -0.552 0 -1 -0.448 -1 -1 s 0.448 -1 1 -1 h 9.394 l 4.656 -5.895 c 0.19 -0.24 0.479 -0.38 0.785 -0.38 h 3.687 c 0.553 0 1 0.448 1 1 s -0.447 1 -1 1 h -3.202 l -4.656 5.895 C 50.327 36.086 50.038 36.227 49.732 36.227 z" style="stroke: none; stroke-width: 1; stroke-dasharray: none; stroke-linecap: butt; stroke-linejoin: miter; stroke-miterlimit: 10; fill: rgb(0,0,0); fill-rule: nonzero; opacity: 1;" transform=" matrix(1 0 0 1 0 0) " stroke-linecap="round" />
	<circle cx="63.835" cy="62.394999999999996" r="4.735" style="stroke: none; stroke-width: 1; stroke-dasharray: none; stroke-linecap: butt; stroke-linejoin: miter; stroke-miterlimit: 10; fill: rgb(247,191,80); fill-rule: nonzero; opacity: 1;" transform="  matrix(1 0 0 1 0 0) "/>
	<path d="M 63.834 68.133 c -3.162 0 -5.734 -2.572 -5.734 -5.734 s 2.572 -5.734 5.734 -5.734 s 5.734 2.572 5.734 5.734 S 66.996 68.133 63.834 68.133 z M 63.834 58.664 c -2.06 0 -3.734 1.675 -3.734 3.734 s 1.675 3.734 3.734 3.734 s 3.734 -1.675 3.734 -3.734 S 65.894 58.664 63.834 58.664 z" style="stroke: none; stroke-width: 1; stroke-dasharray: none; stroke-linecap: butt; stroke-linejoin: miter; stroke-miterlimit: 10; fill: rgb(0,0,0); fill-rule: nonzero; opacity: 1;" transform=" matrix(1 0 0 1 0 0) " stroke-linecap="round" />
	<circle cx="63.835" cy="45.675" r="4.735" style="stroke: none; stroke-width: 1; stroke-dasharray: none; stroke-linecap: butt; stroke-linejoin: miter; stroke-miterlimit: 10; fill: rgb(126,198,197); fill-rule: nonzero; opacity: 1;" transform="  matrix(1 0 0 1 0 0) "/>
	<path d="M 63.834 51.409 c -3.162 0 -5.734 -2.572 -5.734 -5.734 s 2.572 -5.735 5.734 -5.735 s 5.734 2.573 5.734 5.735 S 66.996 51.409 63.834 51.409 z M 63.834 41.94 c -2.06 0 -3.734 1.675 -3.734 3.735 s 1.675 3.734 3.734 3.734 s 3.734 -1.675 3.734 -3.734 S 65.894 41.94 63.834 41.94 z" style="stroke: none; stroke-width: 1; stroke-dasharray: none; stroke-linecap: butt; stroke-linejoin: miter; stroke-miterlimit: 10; fill: rgb(0,0,0); fill-rule: nonzero; opacity: 1;" transform=" matrix(1 0 0 1 0 0) " stroke-linecap="round" />
	<circle cx="63.835" cy="28.955" r="4.735" style="stroke: none; stroke-width: 1; stroke-dasharray: none; stroke-linecap: butt; stroke-linejoin: miter; stroke-miterlimit: 10; fill: rgb(241,123,123); fill-rule: nonzero; opacity: 1;" transform="  matrix(1 0 0 1 0 0) "/>
	<path d="M 63.834 34.686 c -3.162 0 -5.734 -2.572 -5.734 -5.734 s 2.572 -5.735 5.734 -5.735 s 5.734 2.573 5.734 5.735 S 66.996 34.686 63.834 34.686 z M 63.834 25.216 c -2.06 0 -3.734 1.675 -3.734 3.735 c 0 2.059 1.675 3.734 3.734 3.734 s 3.734 -1.675 3.734 -3.734 C 67.568 26.892 65.894 25.216 63.834 25.216 z" style="stroke: none; stroke-width: 1; stroke-dasharray: none; stroke-linecap: butt; stroke-linejoin: miter; stroke-miterlimit: 10; fill: rgb(0,0,0); fill-rule: nonzero; opacity: 1;" transform=" matrix(1 0 0 1 0 0) " stroke-linecap="round" />
	<path d="M 1 59.807 l 0 -28.265 c 0 -2.763 2.24 -5.003 5.003 -5.003 l 28.265 0 c 2.763 0 5.003 2.24 5.003 5.003 l 0 28.265 c 0 2.763 -2.24 5.003 -5.003 5.003 l -28.265 0 C 3.24 64.811 1 62.571 1 59.807 z" style="stroke: none; stroke-width: 1; stroke-dasharray: none; stroke-linecap: butt; stroke-linejoin: miter; stroke-miterlimit: 10; fill: rgb(247,191,80); fill-rule: nonzero; opacity: 1;" transform=" matrix(1 0 0 1 0 0) " stroke-linecap="round" />
	<path d="M 34.269 65.811 H 6.003 C 2.693 65.811 0 63.117 0 59.808 V 31.542 c 0 -3.31 2.693 -6.003 6.003 -6.003 h 28.265 c 3.31 0 6.003 2.693 6.003 6.003 v 28.266 C 40.271 63.117 37.579 65.811 34.269 65.811 z M 6.003 27.539 C 3.796 27.539 2 29.335 2 31.542 v 28.266 c 0 2.207 1.796 4.003 4.003 4.003 h 28.265 c 2.207 0 4.003 -1.796 4.003 -4.003 V 31.542 c 0 -2.207 -1.796 -4.003 -4.003 -4.003 H 6.003 z" style="stroke: none; stroke-width: 1; stroke-dasharray: none; stroke-linecap: butt; stroke-linejoin: miter; stroke-miterlimit: 10; fill: rgb(0,0,0); fill-rule: nonzero; opacity: 1;" transform=" matrix(1 0 0 1 0 0) " stroke-linecap="round" />
	<path d="M 19.072 54.476 c -0.552 0 -1 -0.447 -1 -1 V 41.238 c 0 -1.304 -1.061 -2.364 -2.364 -2.364 h -2.956 c -1.303 0 -2.364 1.061 -2.364 2.364 v 12.238 c 0 0.553 -0.448 1 -1 1 s -1 -0.447 -1 -1 V 41.238 c 0 -2.406 1.958 -4.364 4.364 -4.364 h 2.956 c 2.406 0 4.364 1.958 4.364 4.364 v 12.238 C 20.072 54.028 19.625 54.476 19.072 54.476 z" style="stroke: none; stroke-width: 1; stroke-dasharray: none; stroke-linecap: butt; stroke-linejoin: miter; stroke-miterlimit: 10; fill: rgb(0,0,0); fill-rule: nonzero; opacity: 1;" transform=" matrix(1 0 0 1 0 0) " stroke-linecap="round" />
	<path d="M 19.072 46.675 H 9.388 c -0.552 0 -1 -0.447 -1 -1 c 0 -0.552 0.448 -1 1 -1 h 9.684 c 0.552 0 1 0.448 1 1 C 20.072 46.228 19.625 46.675 19.072 46.675 z" style="stroke: none; stroke-width: 1; stroke-dasharray: none; stroke-linecap: butt; stroke-linejoin: miter; stroke-miterlimit: 10; fill: rgb(0,0,0); fill-rule: nonzero; opacity: 1;" transform=" matrix(1 0 0 1 0 0) " stroke-linecap="round" />
	<path d="M 27.685 54.476 c -0.552 0 -1 -0.447 -1 -1 V 37.874 c 0 -0.552 0.448 -1 1 -1 s 1 0.448 1 1 v 15.602 C 28.685 54.028 28.237 54.476 27.685 54.476 z" style="stroke: none; stroke-width: 1; stroke-dasharray: none; stroke-linecap: butt; stroke-linejoin: miter; stroke-miterlimit: 10; fill: rgb(0,0,0); fill-rule: nonzero; opacity: 1;" transform=" matrix(1 0 0 1 0 0) " stroke-linecap="round" />
	<path d="M 30.884 38.874 h -6.397 c -0.552 0 -1 -0.448 -1 -1 s 0.448 -1 1 -1 h 6.397 c 0.552 0 1 0.448 1 1 S 31.436 38.874 30.884 38.874 z" style="stroke: none; stroke-width: 1; stroke-dasharray: none; stroke-linecap: butt; stroke-linejoin: miter; stroke-miterlimit: 10; fill: rgb(0,0,0); fill-rule: nonzero; opacity: 1;" transform=" matrix(1 0 0 1 0 0) " stroke-linecap="round" />
	<path d="M 30.884 54.476 h -6.397 c -0.552 0 -1 -0.447 -1 -1 s 0.448 -1 1 -1 h 6.397 c 0.552 0 1 0.447 1 1 S 31.436 54.476 30.884 54.476 z" style="stroke: none; stroke-width: 1; stroke-dasharray: none; stroke-linecap: butt; stroke-linejoin: miter; stroke-miterlimit: 10; fill: rgb(0,0,0); fill-rule: nonzero; opacity: 1;" transform=" matrix(1 0 0 1 0 0) " stroke-linecap="round" />
</g>
</svg>