<svg xmlns="http://www.w3.org/2000/svg" xmlns:xlink="http://www.w3.org/1999/xlink" version="1.1" width="256" height="256" viewBox="0 0 256 256" xml:space="preserve">

<defs>
</defs>
<g style="stroke: none; stroke-width: 0; stroke-dasharray: none; stroke-linecap: butt; stroke-linejoin: miter; stroke-miterlimit: 10; fill: none; fill-rule: nonzero; opacity: 1;" transform="translate(1.4065934065934016 1.4065934065934016) scale(2.81 2.81)" >
	<path d="M 45 89.818 c 24.712 -9.852 37.069 -19.703 37.069 -73.469 C 68.154 12.953 55.798 7.443 45 -0.182 C 34.202 7.443 21.846 12.953 7.931 16.348 C 7.931 70.115 20.288 79.966 45 89.818 z" style="stroke: none; stroke-width: 1; stroke-dasharray: none; stroke-linecap: butt; stroke-linejoin: miter; stroke-miterlimit: 10; fill: rgb(55,108,251); fill-rule: nonzero; opacity: 1;" transform=" matrix(1 0 0 1 0 0) " stroke-linecap="round" />
	<path d="M 45 10.859 C 45 10.858 45 10.858 45 10.859 c -8.352 5.439 -17.719 9.633 -27.926 12.503 C 17.616 65.059 27.16 72.144 45 79.427 c 0 0 0 0 0 0 V 10.859 z" style="stroke: none; stroke-width: 1; stroke-dasharray: none; stroke-linecap: butt; stroke-linejoin: miter; stroke-miterlimit: 10; fill: rgb(230,236,255); fill-rule: nonzero; opacity: 1;" transform=" matrix(1 0 0 1 0 0) " stroke-linecap="round" />
	<path d="M 45 10.859 C 45 10.858 45 10.858 45 10.859 c 8.352 5.439 17.719 9.633 27.926 12.503 C 72.385 65.059 62.841 72.144 45 79.427 c 0 0 0 0 0 0 V 10.859 z" style="stroke: none; stroke-width: 1; stroke-dasharray: none; stroke-linecap: butt; stroke-linejoin: miter; stroke-miterlimit: 10; fill: rgb(248,250,255); fill-rule: nonzero; opacity: 1;" transform=" matrix(1 0 0 1 0 0) " stroke-linecap="round" />
	<path d="M 55.307 40.1 h -1.206 v -7.184 c 0 -4.398 -3.578 -7.976 -7.976 -7.976 h -2.252 c -4.397 0 -7.975 3.578 -7.975 7.976 V 40.1 h -1.206 c -1.2 0 -2.172 0.973 -2.172 2.172 v 18.615 c 0 1.2 0.973 2.172 2.172 2.172 h 20.615 c 1.2 0 2.172 -0.973 2.172 -2.172 V 42.272 C 57.48 41.073 56.507 40.1 55.307 40.1 z M 39.899 32.916 c 0 -2.192 1.783 -3.976 3.975 -3.976 h 2.252 c 2.192 0 3.976 1.783 3.976 3.976 V 40.1 H 39.899 V 32.916 z" style="stroke: none; stroke-width: 1; stroke-dasharray: none; stroke-linecap: butt; stroke-linejoin: miter; stroke-miterlimit: 10; fill: rgb(55,108,251); fill-rule: nonzero; opacity: 1;" transform=" matrix(1 0 0 1 0 0) " stroke-linecap="round" />
	<path d="M 48.127 49.09 c 0 -1.92 -1.731 -3.436 -3.717 -3.073 c -1.192 0.218 -2.181 1.161 -2.453 2.342 c -0.293 1.276 0.206 2.438 1.084 3.15 l -0.908 5.231 h 5.735 l -0.908 -5.231 C 47.666 50.935 48.127 50.071 48.127 49.09 z" style="stroke: none; stroke-width: 1; stroke-dasharray: none; stroke-linecap: butt; stroke-linejoin: miter; stroke-miterlimit: 10; fill: rgb(255,255,255); fill-rule: nonzero; opacity: 1;" transform=" matrix(1 0 0 1 0 0) " stroke-linecap="round" />
</g>
</svg>