<svg xmlns="http://www.w3.org/2000/svg" xmlns:xlink="http://www.w3.org/1999/xlink" version="1.1" width="256" height="256" viewBox="0 0 256 256" xml:space="preserve">

<defs>
</defs>
<g style="stroke: none; stroke-width: 0; stroke-dasharray: none; stroke-linecap: butt; stroke-linejoin: miter; stroke-miterlimit: 10; fill: none; fill-rule: nonzero; opacity: 1;" transform="translate(1.4065934065934016 1.4065934065934016) scale(2.81 2.81)" >
	<path d="M 43.447 74.459 c 0 -1.354 -1.039 -2.471 -2.387 -2.589 C 27.281 70.662 16.473 59.093 16.473 45 s 10.808 -25.661 24.587 -26.87 c 1.349 -0.118 2.387 -1.235 2.387 -2.589 v -3.412 c 0 -1.214 -0.832 -2.285 -2.02 -2.534 c -2.874 -0.603 -5.501 -2.51 -6.819 -5.72 c -0.454 -1.105 -1.741 -1.609 -2.845 -1.152 l -9.949 4.121 c -1.104 0.457 -1.658 1.724 -1.197 2.826 c 3.296 7.885 -4.616 15.797 -12.501 12.501 c -1.102 -0.461 -2.368 0.092 -2.825 1.196 c -1.12 2.705 -3.001 7.246 -4.122 9.95 c -0.457 1.104 0.047 2.39 1.152 2.844 c 7.906 3.244 7.906 14.434 0 17.678 c -1.105 0.454 -1.609 1.74 -1.152 2.844 c 1.12 2.705 3.002 7.246 4.122 9.95 c 0.457 1.104 1.723 1.657 2.825 1.196 c 7.885 -3.296 15.797 4.616 12.5 12.501 c -0.461 1.102 0.092 2.368 1.196 2.826 c 2.705 1.12 7.246 3.001 9.95 4.122 c 1.104 0.457 2.39 -0.047 2.844 -1.152 c 1.318 -3.211 3.946 -5.118 6.82 -5.721 c 1.188 -0.249 2.02 -1.321 2.02 -2.534 V 74.459 z" style="stroke: none; stroke-width: 1; stroke-dasharray: none; stroke-linecap: butt; stroke-linejoin: miter; stroke-miterlimit: 10; fill: rgb(118,151,255); fill-rule: nonzero; opacity: 1;" transform=" matrix(1 0 0 1 0 0) " stroke-linecap="round" />
	<circle cx="70.298" cy="14.248000000000001" r="5.238" style="stroke: none; stroke-width: 1; stroke-dasharray: none; stroke-linecap: butt; stroke-linejoin: miter; stroke-miterlimit: 10; fill: rgb(118,151,255); fill-rule: nonzero; opacity: 1;" transform="  matrix(1 0 0 1 0 0) "/>
	<circle cx="83.758" cy="29.748" r="5.238" style="stroke: none; stroke-width: 1; stroke-dasharray: none; stroke-linecap: butt; stroke-linejoin: miter; stroke-miterlimit: 10; fill: rgb(118,151,255); fill-rule: nonzero; opacity: 1;" transform="  matrix(1 0 0 1 0 0) "/>
	<circle cx="83.758" cy="60.248" r="5.238" style="stroke: none; stroke-width: 1; stroke-dasharray: none; stroke-linecap: butt; stroke-linejoin: miter; stroke-miterlimit: 10; fill: rgb(118,151,255); fill-rule: nonzero; opacity: 1;" transform="  matrix(1 0 0 1 0 0) "/>
	<circle cx="70.298" cy="75.748" r="5.238" style="stroke: none; stroke-width: 1; stroke-dasharray: none; stroke-linecap: butt; stroke-linejoin: miter; stroke-miterlimit: 10; fill: rgb(118,151,255); fill-rule: nonzero; opacity: 1;" transform="  matrix(1 0 0 1 0 0) "/>
	<path d="M 32.608 88.447 c -0.416 0 -0.832 -0.082 -1.228 -0.246 l -9.95 -4.122 c -0.793 -0.328 -1.41 -0.946 -1.737 -1.739 c -0.32 -0.776 -0.32 -1.628 0.001 -2.396 c 1.366 -3.266 0.66 -6.849 -1.841 -9.349 c -2.501 -2.503 -6.086 -3.21 -9.351 -1.843 c -0.768 0.321 -1.619 0.321 -2.395 0.002 c -0.793 -0.327 -1.411 -0.944 -1.74 -1.737 l -4.122 -9.951 c -0.329 -0.793 -0.329 -1.665 0.001 -2.457 c 0.322 -0.776 0.924 -1.378 1.695 -1.694 c 3.275 -1.344 5.31 -4.377 5.31 -7.914 c 0 -3.538 -2.035 -6.57 -5.309 -7.914 c -0.77 -0.316 -1.373 -0.918 -1.695 -1.693 c -0.33 -0.792 -0.33 -1.665 -0.001 -2.458 l 4.122 -9.95 c 0.329 -0.793 0.947 -1.411 1.741 -1.737 c 0.777 -0.32 1.627 -0.319 2.394 0.002 c 3.268 1.364 6.849 0.658 9.35 -1.843 c 2.501 -2.502 3.207 -6.084 1.842 -9.35 c -0.321 -0.768 -0.321 -1.619 0 -2.395 c 0.327 -0.793 0.944 -1.412 1.738 -1.74 l 9.949 -4.121 c 0.795 -0.33 1.667 -0.329 2.46 0.002 c 0.775 0.322 1.376 0.924 1.692 1.694 c 1.096 2.671 3.319 4.538 6.099 5.121 c 1.63 0.342 2.814 1.82 2.814 3.513 v 3.412 c 0 1.879 -1.418 3.421 -3.3 3.585 C 27.872 20.291 17.473 31.656 17.473 45 c 0 13.344 10.399 24.709 23.674 25.873 c 1.881 0.165 3.3 1.706 3.3 3.586 v 3.41 c 0 1.694 -1.184 3.172 -2.815 3.514 c -2.781 0.583 -5.004 2.45 -6.1 5.122 c -0.316 0.77 -0.917 1.372 -1.693 1.694 C 33.442 88.364 33.025 88.447 32.608 88.447 z M 11.873 66.061 c 2.716 0 5.348 1.072 7.394 3.118 c 3.086 3.087 3.957 7.507 2.272 11.536 c -0.115 0.274 -0.114 0.581 0.002 0.862 c 0.123 0.299 0.355 0.53 0.653 0.654 l 9.951 4.122 c 0.298 0.123 0.627 0.123 0.924 -0.001 c 0.281 -0.116 0.498 -0.332 0.611 -0.607 c 1.352 -3.295 4.101 -5.599 7.541 -6.319 c 0.71 -0.149 1.225 -0.804 1.225 -1.557 v -3.41 c 0 -0.835 -0.634 -1.52 -1.475 -1.594 C 26.674 71.612 15.473 59.373 15.473 45 c 0 -14.372 11.2 -26.612 25.499 -27.866 c 0.841 -0.074 1.475 -0.759 1.475 -1.593 V 12.13 c 0 -0.752 -0.515 -1.407 -1.225 -1.556 c -3.439 -0.722 -6.187 -3.025 -7.539 -6.319 c -0.112 -0.274 -0.329 -0.49 -0.61 -0.607 c -0.297 -0.124 -0.626 -0.125 -0.927 0 l -9.949 4.121 c -0.299 0.124 -0.532 0.356 -0.655 0.655 c -0.116 0.281 -0.117 0.587 -0.002 0.861 c 1.684 4.029 0.813 8.45 -2.273 11.536 c -3.086 3.087 -7.508 3.957 -11.536 2.274 c -0.274 -0.115 -0.58 -0.114 -0.861 0.002 c -0.298 0.123 -0.531 0.355 -0.655 0.654 L 2.093 33.7 c -0.124 0.299 -0.124 0.627 0 0.925 c 0.117 0.281 0.333 0.498 0.608 0.611 c 4.04 1.658 6.55 5.399 6.55 9.764 s -2.51 8.106 -6.551 9.763 c -0.274 0.113 -0.491 0.33 -0.607 0.612 c -0.124 0.297 -0.124 0.625 0 0.924 l 4.122 9.951 c 0.124 0.299 0.356 0.53 0.654 0.653 c 0.281 0.116 0.588 0.118 0.862 0.002 C 9.089 66.338 10.492 66.061 11.873 66.061 z" style="stroke: none; stroke-width: 1; stroke-dasharray: none; stroke-linecap: butt; stroke-linejoin: miter; stroke-miterlimit: 10; fill: rgb(0,0,0); fill-rule: nonzero; opacity: 1;" transform=" matrix(1 0 0 1 0 0) " stroke-linecap="round" />
	<path d="M 65.065 76.748 h -7.841 c -2.865 0 -5.196 -2.331 -5.196 -5.196 v -5.658 c 0 -1.763 -1.434 -3.196 -3.196 -3.196 h -4.913 c -9.733 0 -17.705 -7.398 -18.15 -16.844 c -0.23 -4.893 1.499 -9.535 4.871 -13.069 c 3.373 -3.536 7.922 -5.483 12.807 -5.483 h 5.385 c 1.763 0 3.196 -1.434 3.196 -3.196 v -5.658 c 0 -2.865 2.331 -5.196 5.196 -5.196 h 7.841 c 0.553 0 1 0.448 1 1 s -0.447 1 -1 1 h -7.841 c -1.763 0 -3.196 1.434 -3.196 3.196 v 5.658 c 0 2.865 -2.331 5.196 -5.196 5.196 h -5.385 c -4.333 0 -8.368 1.728 -11.36 4.864 c -2.99 3.135 -4.524 7.252 -4.32 11.595 c 0.394 8.376 7.489 14.938 16.152 14.938 h 4.913 c 2.865 0 5.196 2.331 5.196 5.196 v 5.658 c 0 1.763 1.434 3.196 3.196 3.196 h 7.841 c 0.553 0 1 0.447 1 1 C 66.065 76.301 65.618 76.748 65.065 76.748 z" style="stroke: none; stroke-width: 1; stroke-dasharray: none; stroke-linecap: butt; stroke-linejoin: miter; stroke-miterlimit: 10; fill: rgb(0,0,0); fill-rule: nonzero; opacity: 1;" transform=" matrix(1 0 0 1 0 0) " stroke-linecap="round" />
	<path d="M 61.765 40.701 H 40.816 c -0.552 0 -1 -0.448 -1 -1 c 0 -0.552 0.448 -1 1 -1 h 20.949 c 1.763 0 3.196 -1.434 3.196 -3.196 v -1.561 c 0 -2.865 2.331 -5.196 5.196 -5.196 h 8.365 c 0.553 0 1 0.448 1 1 c 0 0.552 -0.447 1 -1 1 h -8.365 c -1.763 0 -3.196 1.434 -3.196 3.196 v 1.561 C 66.961 38.37 64.63 40.701 61.765 40.701 z" style="stroke: none; stroke-width: 1; stroke-dasharray: none; stroke-linecap: butt; stroke-linejoin: miter; stroke-miterlimit: 10; fill: rgb(0,0,0); fill-rule: nonzero; opacity: 1;" transform=" matrix(1 0 0 1 0 0) " stroke-linecap="round" />
	<path d="M 78.523 61.253 h -8.365 c -2.865 0 -5.196 -2.331 -5.196 -5.196 v -1.561 c 0 -1.763 -1.434 -3.196 -3.196 -3.196 H 40.816 c -0.552 0 -1 -0.447 -1 -1 c 0 -0.553 0.448 -1 1 -1 h 20.949 c 2.865 0 5.196 2.331 5.196 5.196 v 1.561 c 0 1.763 1.434 3.196 3.196 3.196 h 8.365 c 0.553 0 1 0.447 1 1 S 79.076 61.253 78.523 61.253 z" style="stroke: none; stroke-width: 1; stroke-dasharray: none; stroke-linecap: butt; stroke-linejoin: miter; stroke-miterlimit: 10; fill: rgb(0,0,0); fill-rule: nonzero; opacity: 1;" transform=" matrix(1 0 0 1 0 0) " stroke-linecap="round" />
	<path d="M 70.303 20.49 c -3.439 0 -6.238 -2.799 -6.238 -6.239 s 2.799 -6.238 6.238 -6.238 s 6.238 2.798 6.238 6.238 S 73.743 20.49 70.303 20.49 z M 70.303 10.013 c -2.337 0 -4.238 1.901 -4.238 4.238 c 0 2.337 1.901 4.239 4.238 4.239 s 4.238 -1.901 4.238 -4.239 C 74.541 11.915 72.64 10.013 70.303 10.013 z" style="stroke: none; stroke-width: 1; stroke-dasharray: none; stroke-linecap: butt; stroke-linejoin: miter; stroke-miterlimit: 10; fill: rgb(0,0,0); fill-rule: nonzero; opacity: 1;" transform=" matrix(1 0 0 1 0 0) " stroke-linecap="round" />
	<path d="M 83.761 35.986 c -3.439 0 -6.238 -2.799 -6.238 -6.239 s 2.799 -6.238 6.238 -6.238 c 3.439 0 6.238 2.798 6.238 6.238 S 87.2 35.986 83.761 35.986 z M 83.761 25.509 c -2.337 0 -4.238 1.901 -4.238 4.238 c 0 2.337 1.901 4.239 4.238 4.239 c 2.337 0 4.238 -1.901 4.238 -4.239 C 87.999 27.41 86.098 25.509 83.761 25.509 z" style="stroke: none; stroke-width: 1; stroke-dasharray: none; stroke-linecap: butt; stroke-linejoin: miter; stroke-miterlimit: 10; fill: rgb(0,0,0); fill-rule: nonzero; opacity: 1;" transform=" matrix(1 0 0 1 0 0) " stroke-linecap="round" />
	<path d="M 83.761 66.491 c -3.439 0 -6.238 -2.799 -6.238 -6.238 c 0 -3.44 2.799 -6.239 6.238 -6.239 c 3.439 0 6.238 2.799 6.238 6.239 C 89.999 63.692 87.2 66.491 83.761 66.491 z M 83.761 56.013 c -2.337 0 -4.238 1.901 -4.238 4.239 c 0 2.337 1.901 4.238 4.238 4.238 c 2.337 0 4.238 -1.901 4.238 -4.238 C 87.999 57.915 86.098 56.013 83.761 56.013 z" style="stroke: none; stroke-width: 1; stroke-dasharray: none; stroke-linecap: butt; stroke-linejoin: miter; stroke-miterlimit: 10; fill: rgb(0,0,0); fill-rule: nonzero; opacity: 1;" transform=" matrix(1 0 0 1 0 0) " stroke-linecap="round" />
	<path d="M 70.303 81.987 c -3.439 0 -6.238 -2.799 -6.238 -6.238 c 0 -3.44 2.799 -6.239 6.238 -6.239 s 6.238 2.799 6.238 6.239 C 76.541 79.188 73.743 81.987 70.303 81.987 z M 70.303 71.509 c -2.337 0 -4.238 1.901 -4.238 4.239 c 0 2.337 1.901 4.238 4.238 4.238 s 4.238 -1.901 4.238 -4.238 C 74.541 73.411 72.64 71.509 70.303 71.509 z" style="stroke: none; stroke-width: 1; stroke-dasharray: none; stroke-linecap: butt; stroke-linejoin: miter; stroke-miterlimit: 10; fill: rgb(0,0,0); fill-rule: nonzero; opacity: 1;" transform=" matrix(1 0 0 1 0 0) " stroke-linecap="round" />
</g>
</svg>